<?xml version="1.0" encoding="UTF-8"?> <svg xmlns="http://www.w3.org/2000/svg" width="87" height="87" viewBox="0 0 87 87" fill="none"> <path d="M65.3373 64.8604C77.1878 53.0098 77.1878 33.7963 65.3373 21.9458C53.4867 10.0952 34.2732 10.0952 22.4226 21.9458C10.5721 33.7963 10.5721 53.0098 22.4226 64.8604C34.2732 76.7109 53.4867 76.7109 65.3373 64.8604Z" fill="white"></path> <g opacity="0.3"> <path fill-rule="evenodd" clip-rule="evenodd" d="M58.2506 55.8527C38.9889 55.8527 24.2233 41.7007 20.7417 23.8042C16.2582 29.0893 13.5405 35.9273 13.5405 43.404C13.5405 60.1609 27.1289 73.7492 43.8857 73.7492C57.3614 73.7492 68.7706 64.9575 72.7281 52.8094C68.1569 54.7631 63.2225 55.8527 58.2506 55.8527Z" fill="#1C53B3"></path> </g> <path d="M43.8733 75.9033C25.9518 75.9033 11.374 61.3256 11.374 43.404C11.374 25.4824 25.9518 10.9047 43.8733 10.9047C61.7949 10.9047 76.3727 25.4824 76.3727 43.404C76.3727 61.3256 61.7949 75.9033 43.8733 75.9033ZM43.8733 15.2129C28.3188 15.2129 15.6697 27.8619 15.6697 43.4165C15.6697 58.9711 28.3188 71.6202 43.8733 71.6202C59.4279 71.6202 72.077 58.9711 72.077 43.4165C72.077 27.8619 59.4279 15.2129 43.8733 15.2129Z" fill="#0179BD"></path> <path fill-rule="evenodd" clip-rule="evenodd" d="M44.3009 22.4117C32.7077 22.4117 23.3096 31.8099 23.3096 43.4031C23.3096 54.9963 32.7077 64.3944 44.3009 64.3944C55.8941 64.3944 65.2922 54.9963 65.2922 43.4031C65.2922 31.8099 55.8941 22.4117 44.3009 22.4117ZM37.8553 31.6346C37.855 31.602 39.2849 30.7995 41.0326 29.8511C42.7803 28.9028 44.2415 28.1252 44.2797 28.1231C44.3178 28.1211 44.5361 28.2285 44.7648 28.3621C44.9935 28.4956 46.1848 29.1556 47.4123 29.8288C49.952 31.2216 50.8882 31.7454 50.9445 31.8051C50.987 31.8501 50.716 31.984 48.106 33.2056L47.4606 33.5077C46.7767 33.8278 45.9819 33.8064 45.3163 33.4499V33.4499L45.2272 33.4022C44.6222 33.0782 43.8951 33.0783 43.2902 33.4025V33.4025C42.7576 33.6879 42.2664 33.9234 42.1987 33.9258C42.0498 33.9312 37.8561 31.7188 37.8553 31.6346ZM31.5479 37.0307C31.5479 35.7584 32.2467 34.5888 33.3672 33.9859V33.9859C34.3679 33.4474 35.2629 33.0029 35.3562 32.998C35.4494 32.993 37.4716 34.0298 39.8499 35.302C43.005 36.9898 44.1397 37.6429 44.0466 37.7179C43.9766 37.7744 43.4826 38.0221 42.9489 38.2685C42.4152 38.5148 41.7603 38.8221 41.4935 38.9515C41.1482 39.1183 40.8022 39.2834 40.4555 39.447V39.447C40.1088 39.6103 39.7044 39.5955 39.3705 39.4072L38.6605 39.0067C37.9306 38.5951 37.2012 38.1825 36.4722 37.7692V37.7692C36.0499 37.5296 35.5262 37.8346 35.5262 38.3201V40.5335C35.5262 41.2819 35.0918 41.9623 34.4129 42.2773L33.5902 42.659C32.5254 43.153 31.6303 43.5572 31.6011 43.5572C31.5718 43.5572 31.5479 41.6239 31.5479 39.261V37.0307ZM49.0175 35.372C49.0187 35.3435 50.0333 34.8435 51.2724 34.2608C52.5114 33.678 53.5583 33.2001 53.599 33.1988C53.6396 33.1973 54.4154 33.5931 55.323 34.0783V34.0783C56.3372 34.6205 56.9658 35.6817 56.9541 36.8316L56.9471 37.5181L56.9342 38.7855C56.9263 39.5751 56.4694 40.2913 55.7568 40.6314V40.6314C55.1164 40.9371 53.3481 41.7723 51.8271 42.4874C50.0965 43.3012 48.3662 44.1156 46.636 44.9304C42.7669 46.753 40.9647 47.5984 38.6097 48.6952C37.3972 49.2599 36.4038 49.7515 36.4022 49.7875C36.4007 49.8237 36.4758 49.8791 36.5692 49.9108C36.6627 49.9426 37.0883 50.1823 37.5152 50.4435C37.9422 50.7047 38.5207 51.0435 38.8009 51.1965C39.081 51.3496 39.3103 51.5052 39.3103 51.5425C39.3103 51.5799 38.2952 52.0877 37.0544 52.6709L36.4653 52.9478C35.416 53.4411 34.1957 53.4115 33.1716 52.868V52.868V52.868C32.1721 52.3375 31.5519 51.2941 31.5635 50.1627L31.5706 49.4757C31.5923 47.3554 31.6199 46.933 31.742 46.8603C31.8633 46.788 32.7472 46.3673 35.9628 44.851C36.0974 44.7874 37.1222 44.3049 38.381 43.7121L39.1162 43.3659L45.3747 40.4191C47.2425 39.5396 49.502 38.4767 50.396 38.057C51.2898 37.6373 52.0212 37.2682 52.0212 37.2365C52.0212 37.2049 51.3449 36.7841 50.5184 36.3014C49.6918 35.8188 49.0165 35.4005 49.0175 35.372ZM55.4118 44.0024C55.7556 43.843 56.2359 43.6114 56.4791 43.4876C56.7223 43.3639 56.9506 43.259 56.9864 43.2545C57.0769 43.2431 57.0847 51.6633 56.9942 51.8059C56.9541 51.8693 56.0819 52.3734 55.0562 52.9261V52.9261C53.8922 53.5533 52.4906 53.5522 51.3276 52.9231L48.825 51.5694C46.4236 50.2705 44.4903 49.1789 44.5287 49.1437C44.5671 49.1084 45.3843 48.7184 46.345 48.277C47.3055 47.8355 48.2162 47.4101 48.3685 47.3315C48.632 47.1955 48.7025 47.2204 49.824 47.8463C51.3778 48.7136 52.9236 49.5394 53.0212 49.5545C53.0642 49.561 53.1078 48.5561 53.1182 47.3212L53.1294 45.989C53.134 45.4305 53.4573 44.9237 53.9618 44.684V44.684C54.4154 44.4684 55.0679 44.1617 55.4118 44.0024ZM45.1806 53.8061C45.504 53.6608 45.8274 53.5157 46.1509 53.3708V53.3708C46.6409 53.1512 47.2046 53.1692 47.6797 53.4194L48.9568 54.0923C50.0731 54.6805 51.0001 55.1764 51.0169 55.1942C51.0336 55.2121 50.1421 55.6867 49.0358 56.2489C47.9293 56.8109 46.4064 57.5885 45.6513 57.9768V57.9768C44.7907 58.4194 43.7685 58.4149 42.9118 57.9648L41.0155 56.9685C38.2333 55.5066 37.5123 55.0578 37.946 55.0578C37.9898 55.0578 38.8714 54.6568 39.9051 54.1666C40.9388 53.6764 41.8733 53.2385 41.9819 53.1934C42.1267 53.1333 42.4602 53.2571 43.2339 53.6583C43.8556 53.9807 44.0898 54.1264 44.3229 54.1247C44.5252 54.1232 44.7268 54.0106 45.1806 53.8061Z" fill="#007AB5"></path> </svg> 